<svg width="25" height="25" viewBox="0 0 25 25" fill="none" xmlns="http://www.w3.org/2000/svg">
<path d="M1.87591 4.75137L3.33841 6.19887V18.7764C3.33738 19.3504 3.55581 19.9032 3.94899 20.3215C4.34218 20.7398 4.88038 20.9919 5.45341 21.0264H18.1584L19.6209 22.4889C19.5009 22.5039 19.3734 22.5189 19.2459 22.5189L19.0884 22.5264H5.58841C4.62179 22.5273 3.69214 22.1549 2.99343 21.487C2.29473 20.819 1.88094 19.9071 1.83841 18.9414V5.27637C1.83841 5.09637 1.85341 4.91637 1.87591 4.75137ZM3.12091 1.75137L22.6209 21.2514L21.5559 22.3014L2.05591 2.80137L3.12091 1.75137ZM19.0884 1.52637C20.055 1.52543 20.9847 1.89779 21.6834 2.56575C22.3821 3.23372 22.7959 4.14568 22.8384 5.11137V18.7764C22.8382 18.952 22.8257 19.1275 22.8009 19.3014L21.3384 17.8539V5.27637C21.3394 4.7023 21.121 4.14955 20.7278 3.73127C20.3346 3.31299 19.7964 3.06081 19.2234 3.02637H6.51841L5.06341 1.56387C5.18341 1.54887 5.31091 1.53387 5.43841 1.53387L5.58841 1.52637H19.0884ZM8.66341 12.7764C8.81039 13.497 9.16604 14.1586 9.68612 14.6787C10.2062 15.1987 10.8677 15.5544 11.5884 15.7014V17.2239C10.4663 17.0622 9.4266 16.5415 8.62492 15.7399C7.82324 14.9382 7.30262 13.8985 7.14091 12.7764H8.66341ZM13.0884 15.9564L14.1009 16.9764C13.7725 17.0925 13.4333 17.1754 13.0884 17.2239V15.9564ZM16.2684 12.7764H17.5359C17.4834 13.1289 17.4009 13.4664 17.2809 13.7889L16.2684 12.7764ZM13.0884 6.82887C14.2106 6.99058 15.2502 7.5112 16.0519 8.31288C16.8536 9.11456 17.3742 10.1542 17.5359 11.2764H16.0134C15.8664 10.5557 15.5108 9.89416 14.9907 9.37408C14.4706 8.854 13.8091 8.49835 13.0884 8.35137V6.82887ZM7.38841 10.2639L8.40841 11.2764H7.14091C7.19341 10.9239 7.27591 10.5864 7.38841 10.2639ZM11.5884 6.82887V8.09637L10.5759 7.07637C10.9043 6.96025 11.2435 6.87733 11.5884 6.82887ZM17.5884 6.02637C17.7873 6.02637 17.9781 6.10539 18.1187 6.24604C18.2594 6.38669 18.3384 6.57746 18.3384 6.77637C18.3384 6.97528 18.2594 7.16605 18.1187 7.3067C17.9781 7.44735 17.7873 7.52637 17.5884 7.52637C17.3895 7.52637 17.1987 7.44735 17.0581 7.3067C16.9174 7.16605 16.8384 6.97528 16.8384 6.77637C16.8384 6.57746 16.9174 6.38669 17.0581 6.24604C17.1987 6.10539 17.3895 6.02637 17.5884 6.02637Z" fill="#222222"/>
</svg>
