<svg width="25" height="25" viewBox="0 0 25 25" fill="none" xmlns="http://www.w3.org/2000/svg">
<path d="M18.6784 20.2764C19.4209 20.2764 20.1409 20.5389 20.6809 21.0264C20.9059 21.2439 21.2134 21.3639 21.5359 21.4014H21.6784V22.9014H21.5059C20.8281 22.8678 20.1823 22.6031 19.6759 22.1514C19.4013 21.9073 19.0458 21.7737 18.6784 21.7764C18.3034 21.7764 17.9434 21.9039 17.6809 22.1514C17.1289 22.6401 16.4156 22.9072 15.6784 22.9014C14.9412 22.9072 14.2279 22.6401 13.6759 22.1514C13.4013 21.9073 13.0458 21.7737 12.6784 21.7764C12.3034 21.7764 11.9434 21.9039 11.6809 22.1514C11.1289 22.6401 10.4156 22.9072 9.67841 22.9014C8.94119 22.9072 8.22788 22.6401 7.67591 22.1514C7.40125 21.9073 7.04585 21.7737 6.67841 21.7764C6.30341 21.7764 5.94341 21.9039 5.68091 22.1514C5.1745 22.6031 4.52867 22.8678 3.85091 22.9014H3.67841V21.4014H3.82091C4.13922 21.3731 4.43953 21.2414 4.67591 21.0264C5.22788 20.5377 5.94119 20.2705 6.67841 20.2764C7.42091 20.2764 8.14091 20.5389 8.68091 21.0264C8.94341 21.2739 9.30341 21.4014 9.67841 21.4014C10.0534 21.4014 10.4134 21.2739 10.6759 21.0264C11.2275 20.537 11.9411 20.2698 12.6784 20.2764C13.4209 20.2764 14.1409 20.5389 14.6809 21.0264C14.9434 21.2739 15.3034 21.4014 15.6784 21.4014C16.0534 21.4014 16.4134 21.2739 16.6759 21.0264C17.2279 20.5377 17.9412 20.2705 18.6784 20.2764ZM18.6784 16.5264C19.4209 16.5264 20.1409 16.7889 20.6809 17.2764C20.9059 17.4939 21.2134 17.6139 21.5359 17.6514H21.6784V19.1514H21.5059C20.8281 19.1178 20.1823 18.8531 19.6759 18.4014C19.4013 18.1573 19.0458 18.0237 18.6784 18.0264C18.3034 18.0264 17.9434 18.1539 17.6809 18.4014C17.1289 18.8901 16.4156 19.1572 15.6784 19.1514C14.9412 19.1572 14.2279 18.8901 13.6759 18.4014C13.4013 18.1573 13.0458 18.0237 12.6784 18.0264C12.3034 18.0264 11.9434 18.1539 11.6809 18.4014C11.1289 18.8901 10.4156 19.1572 9.67841 19.1514C8.94119 19.1572 8.22788 18.8901 7.67591 18.4014C7.40125 18.1573 7.04585 18.0237 6.67841 18.0264C6.30341 18.0264 5.94341 18.1539 5.68091 18.4014C5.1745 18.8531 4.52867 19.1178 3.85091 19.1514H3.67841V17.6514H3.82091C4.13922 17.6231 4.43953 17.4914 4.67591 17.2764C5.22788 16.7877 5.94119 16.5205 6.67841 16.5264C7.42091 16.5264 8.14091 16.7889 8.68091 17.2764C8.94341 17.5239 9.30341 17.6514 9.67841 17.6514C10.0534 17.6514 10.4134 17.5239 10.6759 17.2764C11.2275 16.787 11.9411 16.5198 12.6784 16.5264C13.4209 16.5264 14.1409 16.7889 14.6809 17.2764C14.9434 17.5239 15.3034 17.6514 15.6784 17.6514C16.0534 17.6514 16.4134 17.5239 16.6759 17.2764C17.2279 16.7877 17.9412 16.5205 18.6784 16.5264ZM18.6784 12.7764C19.4209 12.7764 20.1409 13.0389 20.6809 13.5264C20.9059 13.7439 21.2134 13.8639 21.5359 13.9014H21.6784V15.4014H21.5059C20.8281 15.3678 20.1823 15.1031 19.6759 14.6514C19.4013 14.4073 19.0458 14.2737 18.6784 14.2764C18.3034 14.2764 17.9434 14.4039 17.6809 14.6514C17.1289 15.1401 16.4156 15.4072 15.6784 15.4014C14.9412 15.4072 14.2279 15.1401 13.6759 14.6514C13.4013 14.4073 13.0458 14.2737 12.6784 14.2764C12.3034 14.2764 11.9434 14.4039 11.6809 14.6514C11.1289 15.1401 10.4156 15.4072 9.67841 15.4014C8.94119 15.4072 8.22788 15.1401 7.67591 14.6514C7.40125 14.4073 7.04585 14.2737 6.67841 14.2764C6.30341 14.2764 5.94341 14.4039 5.68091 14.6514C5.1745 15.1031 4.52867 15.3678 3.85091 15.4014H3.67841V13.9014H3.82091C4.13922 13.8731 4.43953 13.7414 4.67591 13.5264C5.22788 13.0377 5.94119 12.7705 6.67841 12.7764C7.42091 12.7764 8.14091 13.0389 8.68091 13.5264C8.94341 13.7739 9.30341 13.9014 9.67841 13.9014C10.0534 13.9014 10.4134 13.7739 10.6759 13.5264C11.2275 13.037 11.9411 12.7698 12.6784 12.7764C13.4209 12.7764 14.1409 13.0389 14.6809 13.5264C14.9434 13.7739 15.3034 13.9014 15.6784 13.9014C16.0534 13.9014 16.4134 13.7739 16.6759 13.5264C17.2279 13.0377 17.9412 12.7705 18.6784 12.7764ZM12.6784 0.776372C13.6969 0.776227 14.7023 1.00657 15.6191 1.45015C16.5359 1.89373 17.3405 2.53904 17.9726 3.33773C18.6046 4.13642 19.0477 5.06779 19.2686 6.06204C19.4896 7.0563 19.4827 8.08767 19.2484 9.07887C19.7809 9.17637 20.2759 9.41637 20.6809 9.78387C20.9059 9.98637 21.2134 10.1139 21.5359 10.1439L21.6784 10.1514V11.6514H21.5059C20.8281 11.6178 20.1823 11.3531 19.6759 10.9014C19.4395 10.6863 19.1392 10.5546 18.8209 10.5264H18.6484C18.3384 10.5299 18.037 10.6295 17.7859 10.8114L17.6809 10.8939C17.13 11.3853 16.4166 11.6552 15.6784 11.6514C14.9412 11.6572 14.2279 11.3901 13.6759 10.9014C13.4013 10.6573 13.0458 10.5237 12.6784 10.5264C12.3034 10.5264 11.9434 10.6539 11.6809 10.9014C11.1289 11.3901 10.4156 11.6572 9.67841 11.6514C8.94119 11.6572 8.22788 11.3901 7.67591 10.9014C7.43953 10.6863 7.13922 10.5546 6.82091 10.5264H6.64841C6.33836 10.5299 6.03704 10.6295 5.78591 10.8114L5.68091 10.8939C5.1745 11.3456 4.52867 11.6103 3.85091 11.6439L3.67841 11.6514V10.1514H3.82091C4.13922 10.1231 4.43953 9.99143 4.67591 9.77637C5.07801 9.41768 5.57096 9.17639 6.10091 9.07887C5.8665 8.08705 5.85973 7.05502 6.0811 6.06021C6.30246 5.0654 6.74622 4.13362 7.37909 3.33479C8.01195 2.53595 8.81749 1.89079 9.73527 1.4477C10.6531 1.00461 11.6593 0.775094 12.6784 0.776372ZM12.6784 2.27637C11.8451 2.27581 11.0237 2.4736 10.282 2.85339C9.54034 3.23318 8.89971 3.78405 8.41309 4.46047C7.92648 5.13689 7.60787 5.91943 7.48359 6.74338C7.35932 7.56732 7.43295 8.40902 7.69841 9.19887C8.06591 9.32637 8.39591 9.52137 8.68091 9.78387C8.94341 10.0239 9.30341 10.1514 9.67841 10.1514C10.0534 10.1514 10.4134 10.0239 10.6759 9.77637C11.2275 9.28704 11.9411 9.01979 12.6784 9.02637C13.4209 9.02637 14.1409 9.28887 14.6809 9.77637C14.9434 10.0239 15.3034 10.1514 15.6784 10.1514C16.0013 10.1557 16.3169 10.0558 16.5784 9.86637L16.6759 9.78387C16.9609 9.52137 17.2909 9.33387 17.6509 9.19887C17.9162 8.40962 17.9899 7.56859 17.866 6.74523C17.7421 5.92186 17.4242 5.13977 16.9384 4.46352C16.4526 3.78727 15.813 3.23625 15.0723 2.85596C14.3316 2.47566 13.511 2.277 12.6784 2.27637Z" fill="#222222"/>
</svg>
