<svg width="25" height="25" viewBox="0 0 25 25" fill="none" xmlns="http://www.w3.org/2000/svg">
<path d="M9.43091 0.0264893V1.27899H15.9259V0.0264893H17.4259V1.27899H21.9259C22.305 1.27792 22.6704 1.42042 22.9487 1.67783C23.227 1.93525 23.3975 2.28848 23.4259 2.66649V14.719C23.4266 15.0695 23.3045 15.4091 23.0809 15.679L22.9909 15.7765L16.4284 22.339C16.1792 22.5889 15.8499 22.7429 15.4984 22.774H5.68091C4.71429 22.7749 3.78464 22.4026 3.08594 21.7346C2.38723 21.0666 1.97345 20.1547 1.93091 19.189V2.77899C1.92985 2.39991 2.07235 2.03448 2.32976 1.7562C2.58717 1.47792 2.9404 1.30742 3.31841 1.27899H7.93091V0.0264893H9.43091ZM21.9259 8.77899H3.43091V19.024C3.42988 19.5981 3.64831 20.1508 4.0415 20.5691C4.43468 20.9874 4.97288 21.2395 5.54591 21.274H13.9309V17.029C13.93 16.0624 14.3023 15.1327 14.9703 14.434C15.6383 13.7353 16.5502 13.3215 17.5159 13.279H21.9259V8.77899ZM21.8659 14.779H17.6809C17.1068 14.778 16.5541 14.9964 16.1358 15.3896C15.7175 15.7828 15.4654 16.321 15.4309 16.894V21.214L21.8659 14.779ZM7.93091 2.77899H3.43091V7.27899H21.9259V2.77899H17.4259V4.02399H15.9259V2.77899H9.43091V4.02399H7.93091V2.77899Z" fill="#222222"/>
</svg>
