<svg width="25" height="25" viewBox="0 0 25 25" fill="none" xmlns="http://www.w3.org/2000/svg">
<path d="M20.1784 14.2764C20.1784 14.4753 20.0994 14.666 19.9587 14.8067C19.8181 14.9474 19.6273 15.0264 19.4284 15.0264C19.2295 15.0264 19.0387 14.9474 18.8981 14.8067C18.7574 14.666 18.6784 14.4753 18.6784 14.2764C18.6784 14.0775 18.7574 13.8867 18.8981 13.746C19.0387 13.6054 19.2295 13.5264 19.4284 13.5264C19.6273 13.5264 19.8181 13.6054 19.9587 13.746C20.0994 13.8867 20.1784 14.0775 20.1784 14.2764ZM5.92841 13.5264C5.72949 13.5264 5.53873 13.6054 5.39808 13.746C5.25742 13.8867 5.17841 14.0775 5.17841 14.2764C5.17841 14.4753 5.25742 14.666 5.39808 14.8067C5.53873 14.9474 5.72949 15.0264 5.92841 15.0264C6.12732 15.0264 6.31808 14.9474 6.45874 14.8067C6.59939 14.666 6.67841 14.4753 6.67841 14.2764C6.67841 14.0775 6.59939 13.8867 6.45874 13.746C6.31808 13.6054 6.12732 13.5264 5.92841 13.5264ZM21.4534 9.77637L21.7609 10.6164C22.2007 10.9637 22.5566 11.4057 22.802 11.9095C23.0474 12.4133 23.1761 12.966 23.1784 13.5264V20.2764C23.1784 20.6742 23.0204 21.0557 22.7391 21.337C22.4578 21.6183 22.0762 21.7764 21.6784 21.7764H20.1784C19.7806 21.7764 19.399 21.6183 19.1177 21.337C18.8364 21.0557 18.6784 20.6742 18.6784 20.2764V18.7764H6.67841V20.2764C6.67841 20.6742 6.52037 21.0557 6.23907 21.337C5.95776 21.6183 5.57623 21.7764 5.17841 21.7764H3.67841C3.28058 21.7764 2.89905 21.6183 2.61775 21.337C2.33644 21.0557 2.17841 20.6742 2.17841 20.2764V13.5264C2.17841 12.3489 2.74091 11.3064 3.59591 10.6164L3.90341 9.77637H2.17841V8.27637H4.42841V8.38887L5.79341 4.75137C5.90023 4.46547 6.09172 4.21895 6.34232 4.04474C6.59292 3.87053 6.8907 3.7769 7.19591 3.77637H18.1609C18.7834 3.77637 19.3459 4.16637 19.5634 4.75137L20.9284 8.38887V8.27637H23.1784V9.77637H21.4534ZM5.17841 18.7764H3.67841V20.2764H5.17841V18.7764ZM21.6784 18.7764H20.1784V20.2764H21.6784V18.7764ZM21.6784 17.2764V13.5264C21.6784 12.9296 21.4414 12.3573 21.0194 11.9354C20.5974 11.5134 20.0251 11.2764 19.4284 11.2764H5.92841C5.33167 11.2764 4.75937 11.5134 4.33742 11.9354C3.91546 12.3573 3.67841 12.9296 3.67841 13.5264V17.2764H21.6784ZM19.4284 9.77637H19.8484L18.1534 5.27637H7.19591L5.50841 9.77637H19.4284ZM8.17841 15.0264H17.1784V13.5264H8.17841V15.0264Z" fill="#222222"/>
</svg>
