<svg width="25" height="25" viewBox="0 0 25 25" fill="none" xmlns="http://www.w3.org/2000/svg">
<path d="M13.4284 0.776367V3.79887L16.4509 2.05887L17.2009 3.35637L13.4284 5.53137V10.7289L17.9284 8.12637V3.77637H19.4284V7.26387L22.0459 5.74887L22.7959 7.05387L20.1784 8.56137L23.2009 10.3089L22.4509 11.6064L18.6784 9.43137L14.1784 12.0264L18.6784 14.6214L22.4509 12.4464L23.2009 13.7439L20.1784 15.4914L22.7959 16.9989L22.0459 18.3039L19.4284 16.7889V20.2764H17.9284V15.9264L13.4284 13.3239V18.5214L17.2009 20.6964L16.4509 21.9939L13.4284 20.2539V23.2764H11.9284V20.2539L8.90591 21.9939L8.15591 20.6964L11.9284 18.5214V13.3239L7.42841 15.9264V20.2764H5.92841V16.7889L3.31091 18.3039L2.56091 16.9989L5.17841 15.4914L2.15591 13.7439L2.90591 12.4464L6.67841 14.6214L11.1784 12.0264L6.67841 9.43137L2.90591 11.6064L2.15591 10.3089L5.17841 8.56137L2.56091 7.05387L3.31091 5.74887L5.92841 7.26387V3.77637H7.42841V8.12637L11.9284 10.7289V5.53137L8.15591 3.35637L8.90591 2.05887L11.9284 3.79887V0.776367H13.4284Z" fill="#222222"/>
</svg>
