<svg width="25" height="25" viewBox="0 0 25 25" fill="none" xmlns="http://www.w3.org/2000/svg">
<path d="M19.8384 1.52637C19.9856 1.52649 20.1296 1.56993 20.2523 1.65129C20.375 1.73264 20.471 1.84831 20.5284 1.98387L20.5584 2.07387L22.0584 7.32387C22.0873 7.42827 22.0932 7.5377 22.0757 7.64461C22.0583 7.75152 22.0179 7.85338 21.9573 7.94318C21.8967 8.03298 21.8174 8.10859 21.7248 8.16481C21.6322 8.22104 21.5285 8.25654 21.4209 8.26887L21.3384 8.27637H19.0884V12.0264H23.5884V13.5264H22.0884V23.2764H20.5884V21.3714C20.1922 21.6017 19.7482 21.7377 19.2909 21.7689L19.0884 21.7764H5.58841C5.06143 21.7761 4.54389 21.6364 4.08841 21.3714V23.2764H2.58841V13.5264H1.08841V12.0264H4.83841V9.02637C4.83708 8.84211 4.90363 8.66381 5.02535 8.52548C5.14708 8.38715 5.31548 8.29847 5.49841 8.27637H5.76841L4.90591 6.32637L6.27091 5.72637L7.41091 8.27637H9.33841C9.52267 8.27504 9.70097 8.34158 9.8393 8.46331C9.97763 8.58504 10.0663 8.75343 10.0884 8.93637V12.0264H17.5884V8.27637H15.3384C15.2296 8.27668 15.122 8.25331 15.0231 8.20787C14.9242 8.16244 14.8364 8.09602 14.7658 8.01325C14.6951 7.93047 14.6433 7.83331 14.614 7.72851C14.5847 7.62372 14.5785 7.51379 14.5959 7.40637L14.6184 7.32387L16.1184 2.07387C16.1586 1.93185 16.2399 1.80487 16.3519 1.70881C16.464 1.61275 16.6019 1.5519 16.7484 1.53387L16.8384 1.52637H19.8384ZM20.5884 13.5264H4.08841V18.7764C4.08794 19.1355 4.21636 19.483 4.45034 19.7555C4.68431 20.028 5.0083 20.2075 5.36341 20.2614L5.47591 20.2689L5.58841 20.2764H19.0884C19.4675 20.2774 19.8329 20.1349 20.1112 19.8775C20.3895 19.6201 20.56 19.2669 20.5884 18.8889V13.5264ZM8.58841 9.77637H6.33841V12.0264H8.58841V9.77637ZM19.2684 3.02637H17.4009L16.3284 6.77637H20.3409L19.2684 3.02637Z" fill="#222222"/>
</svg>
