<svg width="25" height="25" viewBox="0 0 25 25" fill="none" xmlns="http://www.w3.org/2000/svg">
<path d="M19.8384 0.776369C20.3309 0.776369 20.8185 0.873366 21.2735 1.06182C21.7284 1.25028 22.1418 1.5265 22.4901 1.87472C22.8383 2.22294 23.1145 2.63634 23.303 3.09131C23.4914 3.54628 23.5884 4.03391 23.5884 4.52637C23.5884 9.31887 22.3884 14.4189 20.5884 15.5514V23.2764H19.0884V15.5514C17.3184 14.4414 16.1334 9.49887 16.0884 4.78137V4.36137C16.1309 3.39568 16.5447 2.48372 17.2434 1.81575C17.9421 1.14779 18.8718 0.775433 19.8384 0.776369ZM13.0884 0.776369V14.3664C14.8284 14.7789 16.0884 16.6164 16.0884 18.7764C16.0884 21.2289 14.4534 23.2764 12.3384 23.2764C10.2234 23.2764 8.58841 21.2289 8.58841 18.7764C8.58841 16.6239 9.84841 14.7789 11.5884 14.3664V0.776369H13.0884ZM1.83841 0.776369H2.58841C5.94091 0.776369 7.78591 5.55387 7.83841 14.6514V15.7764H3.33841V23.2764H1.83841V0.776369ZM12.3384 15.7764C11.1384 15.7764 10.0884 17.0889 10.0884 18.7764C10.0884 20.4639 11.1384 21.7764 12.3384 21.7764C13.5384 21.7764 14.5884 20.4639 14.5884 18.7764C14.5884 17.0889 13.5384 15.7764 12.3384 15.7764ZM3.33841 2.45637V14.2764H6.33841L6.32341 13.5564L6.30091 12.8439C6.09091 6.89637 5.01841 3.49137 3.50341 2.54637L3.41341 2.50137L3.33841 2.45637ZM17.5884 4.39137V4.75887C17.6259 7.99887 18.3609 11.6064 19.0884 13.3014V2.40387C18.6705 2.55072 18.3053 2.81765 18.0384 3.17121C17.7716 3.52477 17.615 3.94922 17.5884 4.39137ZM20.5884 2.40387V13.3014C21.3309 11.5689 22.0884 7.82637 22.0884 4.52637C22.0887 4.06088 21.9445 3.60677 21.6759 3.22663C21.4072 2.84649 21.0273 2.55903 20.5884 2.40387Z" fill="#222222"/>
</svg>
