<svg width="25" height="25" viewBox="0 0 25 25" fill="none" xmlns="http://www.w3.org/2000/svg">
<path d="M3.29591 5.82387L4.37591 6.90387C3.42541 8.44309 2.92405 10.2173 2.92841 12.0264C2.92806 13.7617 3.39088 15.4657 4.26907 16.9624C5.14727 18.4592 6.40902 19.6944 7.92407 20.5406C9.43912 21.3868 11.1526 21.8133 12.8875 21.7761C14.6225 21.7388 16.316 21.2393 17.7934 20.3289L18.8809 21.4089C17.0425 22.6288 14.8847 23.2785 12.6784 23.2764C10.6463 23.2758 8.65228 22.7248 6.90817 21.6819C5.16406 20.6391 3.73499 19.1432 2.77276 17.3534C1.81053 15.5635 1.35106 13.5465 1.44318 11.5164C1.53529 9.4864 2.17553 7.51923 3.29591 5.82387ZM3.46091 1.74387L22.9609 21.2439L21.8959 22.3089L2.39591 2.80887L3.46091 1.74387ZM12.6784 0.776368C14.7112 0.775592 16.7061 1.3256 18.4513 2.36792C20.1965 3.41025 21.6266 4.90594 22.5898 6.69604C23.5529 8.48615 24.013 10.5038 23.9212 12.5344C23.8294 14.5651 23.1891 16.533 22.0684 18.2289L20.9809 17.1414C21.9301 15.6043 22.4314 13.8329 22.4284 12.0264C22.4284 9.44051 21.4012 6.96056 19.5727 5.13208C17.7442 3.3036 15.2643 2.27637 12.6784 2.27637C10.8694 2.27201 9.09512 2.77337 7.55591 3.72387L6.48341 2.65137C8.31881 1.43016 10.4739 0.777909 12.6784 0.776368ZM9.00341 12.7764C9.15038 13.497 9.50604 14.1586 10.0261 14.6787C10.5462 15.1987 11.2077 15.5544 11.9284 15.7014V17.2239C10.8063 17.0622 9.7666 16.5415 8.96492 15.7399C8.16324 14.9382 7.64261 13.8985 7.48091 12.7764H9.00341ZM13.4284 15.9564L14.4409 16.9764C14.1125 17.0925 13.7733 17.1754 13.4284 17.2239V15.9564ZM16.6084 12.7764H17.8759C17.8234 13.1289 17.7409 13.4664 17.6209 13.7889L16.6084 12.7764ZM13.4284 6.82887C14.5506 6.99058 15.5902 7.5112 16.3919 8.31288C17.1936 9.11456 17.7142 10.1542 17.8759 11.2764H16.3534C16.2064 10.5557 15.8508 9.89416 15.3307 9.37408C14.8106 8.854 14.1491 8.49834 13.4284 8.35137V6.82887ZM7.72841 10.2639L8.74841 11.2764H7.48091C7.53341 10.9239 7.61591 10.5864 7.72841 10.2639ZM11.9284 6.82887V8.09637L10.9159 7.07637C11.2443 6.96025 11.5835 6.87733 11.9284 6.82887ZM17.9284 6.02637C18.1273 6.02637 18.3181 6.10539 18.4587 6.24604C18.5994 6.38669 18.6784 6.57746 18.6784 6.77637C18.6784 6.97528 18.5994 7.16605 18.4587 7.3067C18.3181 7.44735 18.1273 7.52637 17.9284 7.52637C17.7295 7.52637 17.5387 7.44735 17.3981 7.3067C17.2574 7.16605 17.1784 6.97528 17.1784 6.77637C17.1784 6.57746 17.2574 6.38669 17.3981 6.24604C17.5387 6.10539 17.7295 6.02637 17.9284 6.02637Z" fill="#222222"/>
</svg>
