<svg width="25" height="25" viewBox="0 0 25 25" fill="none" xmlns="http://www.w3.org/2000/svg">
<path d="M18.9259 1.27894C19.305 1.27787 19.6704 1.42037 19.9487 1.67778C20.227 1.93519 20.3975 2.28842 20.4259 2.66644V21.2739H22.6759V22.7739H2.68091V21.2739H4.93091V2.77894C4.92984 2.39986 5.07234 2.03443 5.32975 1.75615C5.58716 1.47787 5.94039 1.30737 6.31841 1.27894H6.43091H18.9259ZM15.9259 2.77894H6.43091V21.2739H15.9259V2.77894ZM18.9259 2.77894H17.4259V21.2739H18.9259V2.77894ZM13.6759 11.0289C13.8069 11.0289 13.9366 11.0547 14.0576 11.1049C14.1787 11.155 14.2886 11.2285 14.3812 11.3211C14.4739 11.4137 14.5473 11.5237 14.5975 11.6447C14.6476 11.7657 14.6734 11.8954 14.6734 12.0264C14.6734 12.1574 14.6476 12.2871 14.5975 12.4082C14.5473 12.5292 14.4739 12.6392 14.3812 12.7318C14.2886 12.8244 14.1787 12.8979 14.0576 12.948C13.9366 12.9981 13.8069 13.0239 13.6759 13.0239C13.4114 13.0239 13.1576 12.9188 12.9706 12.7318C12.7835 12.5447 12.6784 12.291 12.6784 12.0264C12.6784 11.7619 12.7835 11.5082 12.9706 11.3211C13.1576 11.134 13.4114 11.0289 13.6759 11.0289Z" fill="#222222"/>
</svg>
