<svg width="17" height="17" viewBox="0 0 17 17" fill="none" xmlns="http://www.w3.org/2000/svg">
<path d="M8.66344 0.526367C4.5296 0.526367 1.17841 3.87756 1.17841 8.0114C1.17841 11.5216 3.59517 14.4671 6.85535 15.2761V10.2988H5.31194V8.0114H6.85535V7.02577C6.85535 4.47816 8.00835 3.29733 10.5095 3.29733C10.9838 3.29733 11.8021 3.39044 12.1368 3.48325V5.55661C11.9601 5.53804 11.6533 5.52876 11.2721 5.52876C10.0449 5.52876 9.57062 5.99373 9.57062 7.20241V8.0114H12.0155L11.5955 10.2988H9.57062V15.4416C13.2769 14.994 16.1488 11.8383 16.1488 8.0114C16.1485 3.87756 12.7973 0.526367 8.66344 0.526367Z" fill="#222222"/>
</svg>
