<svg width="17" height="16" viewBox="0 0 17 16" fill="none" xmlns="http://www.w3.org/2000/svg">
<path d="M8.5 0.25C10.559 0.255298 12.5317 1.07763 13.9848 2.53638C15.438 3.99512 16.2527 5.971 16.25 8.03C16.2431 10.041 15.4548 11.9706 14.0516 13.4111C12.6483 14.8516 10.7401 15.6903 8.73 15.75H8.48C6.46895 15.7458 4.53829 14.96 3.09588 13.5586C1.65347 12.1573 0.812273 10.2501 0.75 8.24V7.99C0.75265 5.93631 1.57034 3.96763 3.02345 2.51639C4.47657 1.06514 6.4463 0.249998 8.5 0.25ZM10.45 8.75H6.55C6.7 11.65 7.72 14.09 8.43 14.25H8.5C9.18 14.25 10.22 11.88 10.43 9.02L10.45 8.75ZM14.71 8.75H11.95C11.86 10.71 11.42 12.53 10.77 13.83C11.7839 13.4336 12.677 12.7795 13.3609 11.9325C14.0448 11.0855 14.4961 10.0747 14.67 9L14.71 8.75ZM5.04 8.75H2.3C2.43602 9.87388 2.87426 10.9398 3.56807 11.8344C4.26188 12.729 5.1853 13.4186 6.24 13.83C5.55294 12.3531 5.15899 10.757 5.08 9.13L5.05 8.75H5.04ZM6.24 2.17L6.12 2.22C5.09266 2.64311 4.19644 3.33201 3.52336 4.21598C2.85028 5.09995 2.42459 6.14713 2.29 7.25H5.04C5.13 5.42 5.52 3.71 6.1 2.44L6.24 2.17ZM8.49 1.75C7.79 1.75 6.71 4.26 6.55 7.25H10.45C10.3 4.35 9.27 1.91 8.56 1.75H8.49ZM10.77 2.18L10.8 2.23C11.5156 3.80947 11.9066 5.51655 11.95 7.25H14.7C14.5611 6.12971 14.1228 5.06757 13.4312 4.17536C12.7396 3.28315 11.8203 2.59385 10.77 2.18Z" fill="#222222"/>
</svg>
