<svg width="17" height="17" viewBox="0 0 17 17" fill="none" xmlns="http://www.w3.org/2000/svg">
<path d="M5.57222 0.57882C4.77422 0.61647 4.22927 0.74382 3.75287 0.93102C3.25982 1.12317 2.84192 1.38102 2.42612 1.79832C2.01032 2.21562 1.75427 2.63382 1.56347 3.12762C1.37882 3.60507 1.25372 4.15047 1.21847 4.94892C1.18322 5.74737 1.17542 6.00402 1.17932 8.04072C1.18322 10.0774 1.19222 10.3327 1.23092 11.1328C1.26902 11.9307 1.39592 12.4755 1.58312 12.952C1.77557 13.4451 2.03312 13.8628 2.45057 14.2788C2.86802 14.6947 3.28592 14.9502 3.78092 15.1413C4.25792 15.3256 4.80347 15.4513 5.60177 15.4863C6.40007 15.5212 6.65702 15.5293 8.69312 15.5254C10.7292 15.5215 10.9856 15.5125 11.7855 15.4746C12.5855 15.4366 13.1274 15.3088 13.6041 15.1225C14.0972 14.9296 14.5152 14.6725 14.9309 14.2549C15.3465 13.8373 15.6024 13.4188 15.7931 12.9247C15.9779 12.4477 16.1034 11.9022 16.1381 11.1045C16.173 10.3039 16.1813 10.0483 16.1774 8.01192C16.1735 5.97552 16.1643 5.72022 16.1264 4.92042C16.0884 4.12062 15.9614 3.57747 15.7743 3.10062C15.5816 2.60757 15.3243 2.19012 14.907 1.77387C14.4897 1.35762 14.0709 1.10187 13.577 0.91167C13.0997 0.72702 12.5544 0.60117 11.7561 0.56667C10.9578 0.53217 10.7009 0.52332 8.66402 0.52722C6.62717 0.53112 6.37217 0.53982 5.57222 0.57882ZM5.65982 14.137C4.92857 14.1052 4.53152 13.9837 4.26692 13.882C3.91652 13.747 3.66692 13.5838 3.40322 13.3227C3.13952 13.0615 2.97752 12.811 2.84072 12.4614C2.73797 12.1968 2.61422 11.8002 2.58002 11.0689C2.54282 10.2786 2.53502 10.0413 2.53067 8.03892C2.52632 6.03657 2.53397 5.79957 2.56862 5.00892C2.59982 4.27827 2.72207 3.88077 2.82362 3.61632C2.95862 3.26547 3.12122 3.01632 3.38297 2.75277C3.64472 2.48922 3.89447 2.32692 4.24442 2.19012C4.50872 2.08692 4.90532 1.96422 5.63627 1.92942C6.42722 1.89192 6.66422 1.88442 8.66627 1.88007C10.6683 1.87572 10.9059 1.88322 11.6972 1.91802C12.4278 1.94982 12.8255 2.07087 13.0896 2.17302C13.4402 2.30802 13.6896 2.47017 13.9532 2.73237C14.2167 2.99457 14.3792 3.24342 14.516 3.59412C14.6193 3.85767 14.742 4.25412 14.7765 4.98552C14.8142 5.77647 14.8227 6.01362 14.8263 8.01552C14.8299 10.0174 14.8229 10.2552 14.7882 11.0455C14.7563 11.7768 14.6351 12.174 14.5332 12.4389C14.3982 12.7891 14.2355 13.0389 13.9736 13.3023C13.7117 13.5657 13.4622 13.728 13.1121 13.8648C12.8481 13.9678 12.4511 14.0908 11.7207 14.1256C10.9298 14.1628 10.6928 14.1706 8.68997 14.175C6.68717 14.1793 6.45077 14.1712 5.65982 14.137ZM11.774 4.01787C11.7746 4.38191 11.9944 4.70974 12.331 4.84846C12.6676 4.98719 13.0546 4.90949 13.3115 4.6516C13.5685 4.39371 13.6448 4.00643 13.5048 3.67036C13.3648 3.3343 13.0362 3.11564 12.6722 3.11637C12.1752 3.11736 11.7731 3.52093 11.774 4.01787ZM4.82746 8.03382C4.83167 10.1608 6.55907 11.8812 8.68562 11.8771C10.8122 11.8731 12.5337 10.1458 12.5297 8.01882C12.5256 5.89182 10.7978 4.17102 8.67092 4.17521C6.54407 4.17942 4.82342 5.90712 4.82746 8.03382ZM6.17836 8.03112C6.17564 6.65038 7.29273 5.52886 8.67346 5.52612C10.0542 5.5234 11.1757 6.64049 11.1785 8.02122C11.1812 9.40196 10.0641 10.5235 8.68337 10.5262C8.02029 10.5276 7.38382 10.2655 6.91403 9.79756C6.44423 9.32962 6.1796 8.6942 6.17836 8.03112Z" fill="#222222"/>
</svg>
