<svg width="19" height="19" viewBox="0 0 20 20" fill="none" xmlns="http://www.w3.org/2000/svg">
<path fill-rule="evenodd" clip-rule="evenodd" d="M3.30841 11.5265C3.70624 11.5265 4.08777 11.6845 4.36907 11.9658C4.65038 12.2471 4.80841 12.6287 4.80841 13.0265C4.80841 13.4243 4.65038 13.8058 4.36907 14.0871C4.08777 14.3685 3.70624 14.5265 3.30841 14.5265C2.91059 14.5265 2.52906 14.3685 2.24775 14.0871C1.96645 13.8058 1.80841 13.4243 1.80841 13.0265C1.80841 12.6287 1.96645 12.2471 2.24775 11.9658C2.52906 11.6845 2.91059 11.5265 3.30841 11.5265ZM8.30841 11.5265C8.70624 11.5265 9.08777 11.6845 9.36907 11.9658C9.65038 12.2471 9.80841 12.6287 9.80841 13.0265C9.80841 13.4243 9.65038 13.8058 9.36907 14.0871C9.08777 14.3685 8.70624 14.5265 8.30841 14.5265C7.91059 14.5265 7.52905 14.3685 7.24775 14.0871C6.96645 13.8058 6.80841 13.4243 6.80841 13.0265C6.80841 12.6287 6.96645 12.2471 7.24775 11.9658C7.52905 11.6845 7.91059 11.5265 8.30841 11.5265ZM13.3084 11.5265C13.7062 11.5265 14.0878 11.6845 14.3691 11.9658C14.6504 12.2471 14.8084 12.6287 14.8084 13.0265C14.8084 13.4243 14.6504 13.8058 14.3691 14.0871C14.0878 14.3685 13.7062 14.5265 13.3084 14.5265C12.9106 14.5265 12.5291 14.3685 12.2478 14.0871C11.9664 13.8058 11.8084 13.4243 11.8084 13.0265C11.8084 12.6287 11.9664 12.2471 12.2478 11.9658C12.5291 11.6845 12.9106 11.5265 13.3084 11.5265ZM3.30841 6.52649C3.70624 6.52649 4.08777 6.68452 4.36907 6.96583C4.65038 7.24713 4.80841 7.62866 4.80841 8.02649C4.80841 8.42431 4.65038 8.80585 4.36907 9.08715C4.08777 9.36845 3.70624 9.52649 3.30841 9.52649C2.91059 9.52649 2.52906 9.36845 2.24775 9.08715C1.96645 8.80585 1.80841 8.42431 1.80841 8.02649C1.80841 7.62866 1.96645 7.24713 2.24775 6.96583C2.52906 6.68452 2.91059 6.52649 3.30841 6.52649ZM8.30841 6.52649C8.70624 6.52649 9.08777 6.68452 9.36907 6.96583C9.65038 7.24713 9.80841 7.62866 9.80841 8.02649C9.80841 8.42431 9.65038 8.80585 9.36907 9.08715C9.08777 9.36845 8.70624 9.52649 8.30841 9.52649C7.91059 9.52649 7.52905 9.36845 7.24775 9.08715C6.96645 8.80585 6.80841 8.42431 6.80841 8.02649C6.80841 7.62866 6.96645 7.24713 7.24775 6.96583C7.52905 6.68452 7.91059 6.52649 8.30841 6.52649ZM13.3084 6.52649C13.7062 6.52649 14.0878 6.68452 14.3691 6.96583C14.6504 7.24713 14.8084 7.62866 14.8084 8.02649C14.8084 8.42431 14.6504 8.80585 14.3691 9.08715C14.0878 9.36845 13.7062 9.52649 13.3084 9.52649C12.9106 9.52649 12.5291 9.36845 12.2478 9.08715C11.9664 8.80585 11.8084 8.42431 11.8084 8.02649C11.8084 7.62866 11.9664 7.24713 12.2478 6.96583C12.5291 6.68452 12.9106 6.52649 13.3084 6.52649ZM3.30841 1.52649C3.70624 1.52649 4.08777 1.68452 4.36907 1.96583C4.65038 2.24713 4.80841 2.62866 4.80841 3.02649C4.80841 3.42431 4.65038 3.80585 4.36907 4.08715C4.08777 4.36845 3.70624 4.52649 3.30841 4.52649C2.91059 4.52649 2.52906 4.36845 2.24775 4.08715C1.96645 3.80585 1.80841 3.42431 1.80841 3.02649C1.80841 2.62866 1.96645 2.24713 2.24775 1.96583C2.52906 1.68452 2.91059 1.52649 3.30841 1.52649ZM8.30841 1.52649C8.70624 1.52649 9.08777 1.68452 9.36907 1.96583C9.65038 2.24713 9.80841 2.62866 9.80841 3.02649C9.80841 3.42431 9.65038 3.80585 9.36907 4.08715C9.08777 4.36845 8.70624 4.52649 8.30841 4.52649C7.91059 4.52649 7.52905 4.36845 7.24775 4.08715C6.96645 3.80585 6.80841 3.42431 6.80841 3.02649C6.80841 2.62866 6.96645 2.24713 7.24775 1.96583C7.52905 1.68452 7.91059 1.52649 8.30841 1.52649ZM13.3084 1.52649C13.7062 1.52649 14.0878 1.68452 14.3691 1.96583C14.6504 2.24713 14.8084 2.62866 14.8084 3.02649C14.8084 3.42431 14.6504 3.80585 14.3691 4.08715C14.0878 4.36845 13.7062 4.52649 13.3084 4.52649C12.9106 4.52649 12.5291 4.36845 12.2478 4.08715C11.9664 3.80585 11.8084 3.42431 11.8084 3.02649C11.8084 2.62866 11.9664 2.24713 12.2478 1.96583C12.5291 1.68452 12.9106 1.52649 13.3084 1.52649Z" fill="#222222"/>
</svg>
