<svg width="25" height="25" viewBox="0 0 25 25" fill="none" xmlns="http://www.w3.org/2000/svg">
<path d="M7.08841 21.7764V20.2764H8.58841V18.7764H4.83841C3.87179 18.7773 2.94214 18.4049 2.24343 17.737C1.54473 17.069 1.13094 16.1571 1.08841 15.1914V6.02637C1.08748 5.05975 1.45983 4.1301 2.1278 3.43139C2.79576 2.73269 3.70772 2.3189 4.67341 2.27637H19.8384C20.805 2.27543 21.7347 2.64779 22.4334 3.31575C23.1321 3.98372 23.5459 4.89568 23.5884 5.86137V15.0264C23.5893 15.993 23.217 16.9226 22.549 17.6213C21.8811 18.3201 20.9691 18.7338 20.0034 18.7764H16.0884V20.2764H17.5884V21.7764H7.08841ZM14.5884 18.7764H10.0884V20.2764H14.5884V18.7764ZM19.8384 3.77637H4.83841C4.26434 3.77533 3.71159 3.99377 3.29331 4.38695C2.87503 4.78014 2.62285 5.31834 2.58841 5.89137V15.0264C2.58738 15.6004 2.80581 16.1532 3.199 16.5715C3.59218 16.9898 4.13038 17.2419 4.70341 17.2764H19.8384C20.4125 17.2774 20.9652 17.059 21.3835 16.6658C21.8018 16.2726 22.054 15.7344 22.0884 15.1614V6.02637C22.0894 5.4523 21.871 4.89955 21.4778 4.48127C21.0846 4.06299 20.5464 3.81081 19.9734 3.77637H19.8384Z" fill="#222222"/>
</svg>
