<svg width="25" height="25" viewBox="0 0 25 25" fill="none" xmlns="http://www.w3.org/2000/svg">
<path d="M12.6784 15.2739C13.4084 15.2739 14.1085 15.5639 14.6247 16.0801C15.1409 16.5963 15.4309 17.2964 15.4309 18.0264C15.4309 18.7564 15.1409 19.4565 14.6247 19.9727C14.1085 20.4889 13.4084 20.7789 12.6784 20.7789C11.9484 20.7789 11.2483 20.4889 10.7321 19.9727C10.2159 19.4565 9.9259 18.7564 9.9259 18.0264C9.9259 17.2964 10.2159 16.5963 10.7321 16.0801C11.2483 15.5639 11.9484 15.2739 12.6784 15.2739ZM12.6784 16.7739C12.3462 16.7739 12.0276 16.9059 11.7927 17.1408C11.5579 17.3757 11.4259 17.6942 11.4259 18.0264C11.4259 18.3586 11.5579 18.6772 11.7927 18.9121C12.0276 19.147 12.3462 19.2789 12.6784 19.2789C13.0106 19.2789 13.3292 19.147 13.564 18.9121C13.7989 18.6772 13.9309 18.3586 13.9309 18.0264C13.9309 17.6942 13.7989 17.3757 13.564 17.1408C13.3292 16.9059 13.0106 16.7739 12.6784 16.7739ZM12.6784 11.2764C13.9295 11.2767 15.1559 11.6248 16.2207 12.2817C17.2855 12.9385 18.1468 13.8784 18.7084 14.9964L17.5759 16.1289C17.194 15.1401 16.5218 14.2901 15.6477 13.6906C14.7735 13.0911 13.7384 12.7702 12.6784 12.7702C11.6184 12.7702 10.5833 13.0911 9.70912 13.6906C8.83497 14.2901 8.16275 15.1401 7.7809 16.1289L6.6484 14.9964C7.21001 13.8784 8.07129 12.9385 9.13608 12.2817C10.2009 11.6248 11.4273 11.2767 12.6784 11.2764ZM12.6784 7.27893C16.4134 7.27893 19.7059 9.18393 21.6334 12.0789L20.5459 13.1589C19.7173 11.8176 18.5595 10.7103 17.1825 9.94238C15.8055 9.17445 14.2551 8.77133 12.6784 8.77133C11.1017 8.77133 9.55127 9.17445 8.17427 9.94238C6.79728 10.7103 5.63949 11.8176 4.8109 13.1589L3.7234 12.0714C4.70392 10.5944 6.03484 9.38306 7.59739 8.54551C9.15994 7.70796 10.9055 7.27025 12.6784 7.27143V7.27893ZM12.6784 3.27393C17.5159 3.27393 21.8134 5.59893 24.4984 9.19893L23.4259 10.2789C22.2009 8.57249 20.5872 7.18227 18.7183 6.22329C16.8494 5.2643 14.779 4.76412 12.6784 4.76412C10.5778 4.76412 8.5074 5.2643 6.63849 6.22329C4.76958 7.18227 3.15588 8.57249 1.9309 10.2789L0.858398 9.20643C3.5434 5.60643 7.8334 3.28143 12.6784 3.28143V3.27393Z" fill="#222222"/>
</svg>
